<svg width="1400" height="1400" viewBox="0 0 1400 1400" fill="none" xmlns="http://www.w3.org/2000/svg">
<path d="M1262.17 308.614C1365.98 457.709 1406.29 641.942 1374.27 820.765C1342.24 999.588 1240.49 1158.37 1091.39 1262.17C942.286 1365.98 758.064 1406.3 579.241 1374.27C400.407 1342.24 241.628 1240.48 137.826 1091.38C34.0311 942.286 -6.2979 758.064 25.7321 579.233C57.7659 400.411 159.516 241.631 308.622 137.825C457.709 34.0227 641.942 -6.2988 820.765 25.735C999.595 57.7575 1158.37 159.519 1262.17 308.614Z" fill="#34B50A"/>
<path d="M430 1329.45C647.231 1422.69 897.174 1397.36 1091.29 1262.42C1240.44 1158.57 1342.22 999.704 1374.27 820.787C1406.3 641.87 1365.97 457.54 1262.13 308.367C1191.05 206.457 1093.6 125.794 980.208 75C983.302 78.2956 986.366 81.6139 989.388 84.9588C1001.63 99.2625 1013.31 114.021 1024.43 129.188C1035.55 144.363 1046.11 159.947 1056.06 175.921C1066.03 191.88 1075.38 208.211 1084.11 224.87C1092.85 241.542 1100.97 258.523 1108.43 275.793C1115.91 293.063 1122.72 310.605 1128.88 328.39C1131.01 334.512 1133.04 340.66 1135.01 346.827C1136.97 353.005 1138.85 359.202 1140.65 365.426C1142.45 371.642 1144.17 377.889 1145.81 384.15C1147.46 390.416 1149.02 396.711 1150.49 403.015C1151.98 409.318 1153.37 415.64 1154.68 421.981C1156 428.323 1157.24 434.687 1158.38 441.054C1159.54 447.437 1160.61 453.816 1161.6 460.218C1162.59 466.62 1163.49 473.037 1164.32 479.458C1165.13 485.886 1165.88 492.318 1166.54 498.765C1167.2 505.205 1167.77 511.664 1168.25 518.122C1168.75 524.581 1169.16 531.039 1169.48 537.506C1169.81 543.976 1170.05 550.453 1170.21 556.931C1170.37 563.408 1170.44 569.886 1170.44 576.363C1170.42 582.833 1170.33 589.311 1170.16 595.789C1169.98 602.266 1169.72 608.732 1169.38 615.202C1169.04 621.668 1168.61 628.138 1168.1 634.586C1167.59 641.044 1167 647.495 1166.33 653.943C1165.66 660.382 1164.89 666.811 1164.06 673.231C1163.21 679.66 1162.29 686.069 1161.29 692.471C1160.29 698.873 1159.2 705.252 1158.02 711.623C1156.86 717.995 1155.6 724.347 1154.27 730.688C1152.93 737.03 1151.53 743.352 1150.03 749.655C1148.53 755.951 1146.95 762.235 1145.29 768.497C1143.64 774.755 1141.9 780.998 1140.09 787.214C1138.27 793.43 1136.36 799.627 1134.39 805.787C1132.41 811.961 1130.35 818.102 1128.22 824.212C1126.08 830.329 1123.87 836.421 1121.58 842.47C1119.28 848.531 1116.92 854.561 1114.46 860.558C1112.02 866.558 1109.49 872.513 1106.89 878.449C1104.29 884.381 1101.62 890.279 1098.86 896.147C1096.11 902.003 1093.28 907.833 1090.38 913.621C1087.47 919.409 1084.49 925.159 1081.44 930.872C1078.4 936.584 1075.26 942.266 1072.07 947.891C1068.87 953.524 1065.61 959.119 1062.26 964.669C1058.92 970.214 1055.5 975.722 1052.02 981.181C1048.54 986.643 1044.99 992.064 1041.37 997.424C1037.74 1002.8 1034.06 1008.12 1030.3 1013.4C1026.53 1018.66 1022.71 1023.89 1018.82 1029.07C1014.92 1034.25 1010.96 1039.37 1006.94 1044.44C1002.91 1049.52 998.823 1054.53 994.664 1059.51C990.506 1064.47 986.287 1069.39 982.011 1074.25C977.727 1079.11 973.383 1083.92 968.971 1088.66C964.57 1093.4 960.108 1098.1 955.582 1102.73C951.053 1107.36 946.466 1111.93 941.823 1116.45C937.18 1120.96 932.476 1125.42 927.715 1129.81C922.954 1134.21 918.144 1138.53 913.278 1142.81C908.403 1147.07 903.476 1151.28 898.503 1155.42C893.519 1159.57 888.497 1163.65 883.407 1167.66C878.324 1171.68 873.196 1175.63 868.011 1179.5C862.823 1183.38 857.588 1187.19 852.301 1190.94C847.018 1194.69 841.685 1198.36 836.315 1201.97C830.933 1205.58 825.513 1209.12 820.044 1212.59C814.568 1216.06 809.061 1219.46 803.505 1222.78C797.949 1226.11 792.344 1229.37 786.712 1232.55C781.069 1235.74 775.388 1238.84 769.669 1241.88C763.946 1244.91 758.189 1247.88 752.391 1250.76C746.593 1253.65 740.756 1256.46 734.89 1259.21C729.023 1261.94 723.118 1264.61 717.184 1267.19C711.241 1269.78 705.269 1272.29 699.266 1274.72C693.267 1277.16 687.233 1279.5 681.174 1281.78C675.106 1284.06 669.016 1286.26 662.9 1288.38C645.126 1294.54 627.12 1300.03 608.934 1304.84C590.743 1309.65 572.389 1313.78 553.892 1317.22C535.391 1320.66 516.776 1323.41 498.074 1325.45C479.372 1327.5 460.598 1328.85 441.801 1329.49C437.863 1329.51 433.935 1329.5 430 1329.45Z" fill="#319D0F"/>
<path d="M430.505 1328.95C434.44 1329 438.368 1329.01 442.307 1328.99C461.105 1328.35 479.881 1327 498.584 1324.96C517.288 1322.91 535.904 1320.17 554.407 1316.73C572.906 1313.29 591.261 1309.16 609.453 1304.35C627.641 1299.54 645.648 1294.05 663.423 1287.9C669.54 1285.78 675.631 1283.58 681.699 1281.31C687.759 1279.03 693.793 1276.68 699.792 1274.25C705.796 1271.82 711.769 1269.31 717.712 1266.72C723.647 1264.14 729.552 1261.47 735.419 1258.74C741.286 1256 747.123 1253.19 752.922 1250.3C758.721 1247.42 764.478 1244.46 770.201 1241.42C775.921 1238.39 781.602 1235.29 787.246 1232.1C792.878 1228.92 798.484 1225.66 804.04 1222.34C809.597 1219.01 815.104 1215.62 820.581 1212.15C826.05 1208.68 831.47 1205.14 836.853 1201.54C842.224 1197.93 847.557 1194.26 852.84 1190.51C858.128 1186.77 863.363 1182.96 868.552 1179.08C873.737 1175.2 878.865 1171.26 883.948 1167.25C889.039 1163.23 894.062 1159.15 899.046 1155.01C904.019 1150.87 908.947 1146.67 913.822 1142.41C918.689 1138.13 923.499 1133.81 928.26 1129.42C933.021 1125.03 937.726 1120.57 942.369 1116.06C947.013 1111.54 951.6 1106.98 956.13 1102.34C960.656 1097.71 965.118 1093.02 969.519 1088.28C973.932 1083.54 978.276 1078.73 982.56 1073.88C986.836 1069.02 991.056 1064.11 995.215 1059.15C999.374 1054.17 1003.46 1049.17 1007.49 1044.08C1011.51 1039.01 1015.47 1033.9 1019.37 1028.72C1023.27 1023.55 1027.09 1018.32 1030.85 1013.06C1034.61 1007.79 1038.3 1002.47 1041.92 997.095C1045.55 991.738 1049.1 986.32 1052.58 980.86C1056.06 975.405 1059.47 969.9 1062.82 964.357C1066.16 958.81 1069.43 953.218 1072.63 947.588C1075.82 941.966 1078.95 936.287 1082 930.577C1085.05 924.868 1088.03 919.121 1090.94 913.335C1093.84 907.55 1096.67 901.723 1099.42 895.87C1102.17 890.005 1104.85 884.111 1107.45 878.182C1110.05 872.249 1112.58 866.297 1115.02 860.3C1117.48 854.306 1119.84 848.279 1122.14 842.221C1124.43 836.175 1126.64 830.087 1128.78 823.972C1130.92 817.865 1132.97 811.728 1134.95 805.557C1136.93 799.401 1138.83 793.207 1140.65 786.994C1142.46 780.781 1144.2 774.541 1145.86 768.287C1147.52 762.028 1149.1 755.747 1150.59 749.454C1152.09 743.154 1153.5 736.835 1154.84 730.498C1156.16 724.16 1157.43 717.81 1158.59 711.442C1159.76 705.074 1160.85 698.698 1161.86 692.3C1162.86 685.901 1163.78 679.495 1164.62 673.07C1165.45 666.653 1166.22 660.228 1166.89 653.791C1167.57 647.347 1168.16 640.9 1168.66 634.444C1169.18 628.001 1169.61 621.534 1169.94 615.071C1170.28 608.604 1170.55 602.142 1170.72 595.667C1170.89 589.193 1170.98 582.719 1171 576.252C1171 569.778 1170.93 563.304 1170.78 556.83C1170.61 550.355 1170.37 543.881 1170.05 537.415C1169.72 530.952 1169.31 524.496 1168.82 518.041C1168.33 511.586 1167.76 505.131 1167.1 498.694C1166.44 492.25 1165.7 485.822 1164.88 479.397C1164.06 472.979 1163.16 466.565 1162.17 460.167C1161.18 453.769 1160.1 447.393 1158.95 441.013C1157.8 434.649 1156.56 428.288 1155.24 421.95C1153.94 415.612 1152.54 409.293 1151.05 402.993C1149.58 396.693 1148.02 390.401 1146.37 384.139C1144.73 377.88 1143.02 371.637 1141.21 365.424C1139.41 359.203 1137.53 353.009 1135.57 346.834C1133.6 340.67 1131.57 334.526 1129.44 328.407C1123.28 310.632 1116.47 293.098 1108.99 275.837C1101.53 258.577 1093.41 241.604 1084.67 224.941C1075.94 208.29 1066.58 191.968 1056.62 176.017C1046.66 160.051 1036.1 144.475 1024.98 129.308C1013.86 114.149 1002.18 99.3982 989.939 85.1019C986.916 81.7588 983.852 78.4421 980.757 75.1482C761.319 -23.3847 506.254 0.319987 308.747 137.604C159.577 241.411 57.784 400.192 25.7367 579.016C-6.30695 757.848 34.0392 942.072 137.878 1091.17C211.26 1196.23 312.644 1278.61 430.505 1328.95Z" fill="#34B50A"/>
<path d="M843 30.3994C841.603 30.089 840.209 29.7786 838.812 29.4795C832.958 28.2681 827.092 27.1437 821.201 26.0875C815.316 25.0313 809.42 24.0507 803.51 23.1497C797.595 22.2601 791.68 21.4348 785.739 20.689C783.713 20.4467 781.668 20.2234 779.643 20C746.983 185.997 651.171 332.986 512.066 429.807C373.041 526.574 202.023 565.408 35.0868 538.507C31.6562 552.094 28.642 565.779 26.052 579.541C24.9198 586.866 23.9012 594.203 23 601.558C206.919 631.689 395.549 589.096 548.739 482.478C702.055 375.765 807.52 213.493 843 30.3994Z" fill="#FBFCFE"/>
<path d="M1378 798.521C1377.81 799.937 1377.61 801.354 1377.41 802.778C1376.51 808.683 1375.54 814.588 1374.48 820.474C1373.43 826.36 1372.3 832.235 1371.09 838.091C1369.88 843.951 1368.6 849.788 1367.24 855.613C1366.76 857.602 1366.27 859.59 1365.76 861.579C1198.81 834.565 1027.74 873.419 888.703 970.286C749.738 1067.11 653.999 1214.06 621.298 1380C607.374 1378.5 593.51 1376.57 579.702 1374.22C572.436 1372.75 565.206 1371.15 558 1369.44C593.548 1186.44 698.918 1024.27 852.039 917.595C1005.28 810.827 1194.02 768.23 1378 798.521Z" fill="#FBFCFE"/>
<path d="M843 30.3994C841.603 30.089 840.209 29.7786 838.812 29.4795C832.958 28.2681 827.092 27.1437 821.201 26.0875C815.316 25.0313 809.42 24.0507 803.51 23.1497C797.595 22.2601 791.68 21.4348 785.739 20.689C783.713 20.4467 781.668 20.2234 779.643 20C746.983 185.997 651.171 332.986 512.066 429.807C373.041 526.574 202.023 565.408 35.0868 538.507C31.6562 552.094 28.642 565.779 26.052 579.541C24.9198 586.866 23.9012 594.203 23 601.558C206.919 631.689 395.549 589.096 548.739 482.478C702.055 375.765 807.52 213.493 843 30.3994Z" fill="#FBFCFE"/>
</svg>
